<svg id="svg" version="1.1" xmlns="http://www.w3.org/2000/svg" xmlns:xlink="http://www.w3.org/1999/xlink" width="400" height="244.7761194029851" viewBox="0, 0, 400,244.7761194029851"><g id="svgg"><path id="path0" d="M368.860 42.560 C 367.214 42.813,367.193 43.018,368.794 43.218 C 370.091 43.380,374.282 43.180,374.518 42.945 C 374.927 42.535,370.834 42.257,368.860 42.560 M358.262 44.310 C 353.746 44.473,352.999 44.598,352.999 45.191 C 352.999 45.379,352.971 45.544,352.938 45.558 C 352.833 45.600,347.670 45.982,343.819 46.231 C 339.036 46.541,337.584 46.747,336.857 47.220 C 336.244 47.618,334.731 47.825,329.621 48.210 C 326.451 48.449,325.784 48.586,324.858 49.183 C 324.242 49.581,323.080 49.739,317.748 50.148 C 314.477 50.399,314.370 50.423,312.455 51.330 C 311.424 51.818,310.608 51.961,307.863 52.131 C 304.868 52.318,304.381 52.413,303.119 53.063 C 302.149 53.563,301.183 53.836,300.000 53.946 C 295.522 54.363,294.248 54.580,293.235 55.098 C 292.625 55.410,291.378 55.733,290.330 55.851 C 289.321 55.964,287.558 56.158,286.414 56.282 C 284.963 56.439,283.851 56.732,282.742 57.251 C 281.530 57.818,280.561 58.055,278.676 58.245 C 276.849 58.429,275.885 58.659,274.992 59.122 C 274.110 59.580,273.124 59.817,271.347 60.001 C 269.411 60.202,268.559 60.423,267.197 61.081 C 265.833 61.740,264.991 61.959,263.073 62.153 C 261.287 62.334,260.345 62.563,259.437 63.038 C 258.480 63.538,257.506 63.759,254.993 64.047 C 252.354 64.349,251.617 64.523,250.897 65.016 C 249.791 65.773,248.677 66.095,247.170 66.095 C 245.921 66.095,245.324 66.322,244.273 67.196 C 243.799 67.590,243.150 67.778,241.853 67.899 C 239.944 68.076,237.897 68.517,237.699 68.794 C 237.360 69.267,235.698 69.851,233.829 70.154 C 232.425 70.381,231.456 70.689,230.865 71.096 C 229.864 71.786,228.297 72.201,226.656 72.209 C 225.892 72.213,225.259 72.397,224.698 72.776 C 224.191 73.118,222.963 73.507,221.542 73.776 C 220.263 74.018,218.377 74.592,217.350 75.051 C 216.323 75.511,215.265 75.887,215.000 75.887 C 214.172 75.887,212.875 76.433,212.331 77.009 C 211.762 77.613,210.358 78.087,209.135 78.089 C 208.096 78.091,207.081 78.497,206.679 79.072 C 206.275 79.648,204.917 80.046,203.350 80.048 C 202.074 80.049,201.282 80.362,200.787 81.060 C 200.433 81.558,199.331 81.894,197.244 82.142 C 196.234 82.262,195.587 82.506,194.961 83.003 C 194.419 83.433,193.654 83.756,192.944 83.853 C 190.960 84.126,189.874 84.478,188.759 85.212 C 188.163 85.604,187.412 85.924,187.090 85.924 C 186.376 85.924,185.635 86.288,184.823 87.038 C 184.455 87.378,183.526 87.759,182.497 87.992 C 181.554 88.206,180.087 88.720,179.235 89.135 C 178.045 89.715,177.233 89.921,175.726 90.024 C 173.968 90.145,173.667 90.241,172.807 90.959 C 172.280 91.400,171.490 91.831,171.053 91.917 C 169.851 92.155,168.860 92.584,168.361 93.084 C 167.766 93.679,167.082 93.920,165.404 94.130 C 164.413 94.254,163.754 94.508,163.122 95.010 C 162.634 95.398,162.001 95.721,161.717 95.727 C 160.823 95.745,159.331 96.388,158.964 96.912 C 158.644 97.369,158.134 97.568,156.124 98.021 C 155.757 98.103,155.078 98.503,154.615 98.909 C 154.153 99.315,153.188 99.821,152.470 100.034 C 151.752 100.247,150.803 100.740,150.360 101.129 C 149.917 101.518,149.476 101.837,149.379 101.838 C 147.871 101.854,146.029 102.425,145.515 103.036 C 145.085 103.547,144.562 103.802,143.519 104.011 C 142.741 104.166,141.634 104.613,141.058 105.003 C 140.483 105.393,139.561 105.788,139.010 105.881 C 138.381 105.987,137.668 106.359,137.090 106.880 C 136.585 107.337,135.799 107.782,135.344 107.868 C 134.266 108.074,133.405 108.514,132.820 109.161 C 132.561 109.447,131.765 109.851,131.051 110.058 C 130.336 110.266,129.687 110.541,129.608 110.669 C 129.419 110.974,127.160 112.118,126.746 112.118 C 126.569 112.118,126.150 112.431,125.814 112.814 C 125.460 113.217,124.639 113.693,123.862 113.946 C 123.054 114.209,122.303 114.651,121.972 115.061 C 121.595 115.527,121.020 115.834,120.136 116.039 C 119.385 116.213,118.544 116.620,118.115 117.016 C 117.711 117.389,117.105 117.777,116.769 117.879 C 116.432 117.981,115.673 118.434,115.081 118.885 C 114.489 119.337,113.739 119.706,113.413 119.706 C 112.681 119.706,111.991 120.059,110.946 120.966 C 110.482 121.369,109.858 121.665,109.471 121.665 C 108.356 121.665,107.711 122.290,107.711 123.372 C 107.711 124.814,107.511 125.091,105.934 125.837 C 105.132 126.216,104.323 126.746,104.135 127.014 C 103.947 127.282,103.451 127.576,103.032 127.668 C 102.613 127.760,101.870 128.196,101.380 128.637 C 100.819 129.141,100.109 129.502,99.462 129.610 C 98.784 129.723,98.075 130.097,97.381 130.706 C 96.802 131.214,95.942 131.827,95.471 132.069 C 95.000 132.311,94.476 132.704,94.308 132.943 C 94.139 133.182,93.588 133.512,93.084 133.675 C 92.579 133.839,91.760 134.338,91.262 134.783 C 90.765 135.228,89.913 135.712,89.369 135.858 C 88.825 136.005,88.265 136.340,88.124 136.603 C 87.983 136.866,87.559 137.241,87.182 137.437 C 86.805 137.632,86.038 138.174,85.479 138.641 C 84.872 139.148,84.064 139.558,83.475 139.658 C 82.752 139.780,82.320 140.044,81.862 140.645 C 81.449 141.187,80.824 141.603,80.029 141.867 C 79.365 142.088,78.501 142.589,78.108 142.982 C 77.715 143.375,77.168 143.696,76.891 143.696 C 76.610 143.696,76.198 143.994,75.957 144.370 C 75.350 145.319,75.132 145.512,74.264 145.867 C 73.842 146.039,73.190 146.500,72.816 146.891 C 72.441 147.282,71.776 147.720,71.338 147.865 C 70.900 148.009,70.366 148.397,70.150 148.726 C 69.934 149.055,69.347 149.496,68.845 149.705 C 68.342 149.915,67.601 150.399,67.197 150.781 C 66.793 151.163,66.116 151.650,65.693 151.863 C 65.270 152.076,64.590 152.584,64.182 152.992 C 63.774 153.399,63.275 153.733,63.072 153.733 C 62.870 153.733,62.448 154.049,62.135 154.435 C 61.823 154.821,61.236 155.341,60.832 155.589 C 60.428 155.838,59.614 156.458,59.023 156.968 C 58.432 157.478,57.793 157.895,57.604 157.895 C 57.414 157.895,56.980 158.198,56.639 158.568 C 56.297 158.938,55.676 159.359,55.259 159.502 C 54.842 159.646,54.383 159.975,54.239 160.233 C 53.925 160.799,53.123 161.567,52.847 161.567 C 52.738 161.567,52.115 162.040,51.463 162.619 C 50.811 163.198,49.941 163.811,49.528 163.982 C 49.116 164.153,48.659 164.555,48.513 164.875 C 48.367 165.195,47.941 165.656,47.567 165.899 C 47.193 166.142,46.695 166.531,46.460 166.763 C 46.225 166.996,45.645 167.348,45.171 167.546 C 44.697 167.744,44.190 168.169,44.043 168.490 C 43.897 168.812,43.449 169.268,43.048 169.505 C 42.647 169.742,42.206 170.183,42.069 170.485 C 41.931 170.786,41.470 171.234,41.044 171.481 C 40.618 171.727,39.869 172.284,39.379 172.719 C 38.890 173.154,38.091 173.654,37.605 173.830 C 37.118 174.006,36.720 174.265,36.721 174.407 C 36.722 174.645,36.024 175.420,33.991 177.436 C 33.540 177.883,33.005 178.423,32.803 178.636 C 31.750 179.744,29.840 181.251,29.065 181.586 C 28.692 181.747,28.281 182.158,28.151 182.498 C 28.022 182.839,27.634 183.225,27.289 183.356 C 26.945 183.487,26.478 183.916,26.252 184.310 C 26.026 184.703,25.528 185.210,25.145 185.437 C 24.762 185.663,24.327 186.113,24.180 186.437 C 24.032 186.761,23.827 187.026,23.724 187.026 C 23.117 187.026,20.318 190.168,20.318 190.849 C 20.318 191.251,20.186 191.711,20.024 191.873 C 19.796 192.101,24.520 192.166,41.283 192.166 L 62.835 192.166 63.115 191.551 C 63.269 191.212,63.700 190.801,64.072 190.638 C 64.445 190.474,65.410 189.677,66.218 188.866 C 67.026 188.056,68.100 187.118,68.605 186.781 C 69.110 186.444,69.578 186.000,69.645 185.793 C 69.712 185.587,70.097 185.223,70.500 184.985 C 70.903 184.747,71.360 184.314,71.516 184.022 C 71.788 183.514,73.833 181.488,75.643 179.932 C 78.304 177.645,79.663 176.417,81.668 174.486 C 82.896 173.305,84.062 172.338,84.261 172.338 C 84.459 172.338,84.749 172.057,84.906 171.714 C 85.062 171.372,85.516 170.904,85.915 170.675 C 86.314 170.446,86.767 170.022,86.921 169.734 C 87.076 169.446,87.493 169.078,87.848 168.918 C 88.489 168.628,88.931 168.243,91.075 166.103 C 91.686 165.493,92.316 164.994,92.474 164.994 C 92.633 164.994,93.295 164.520,93.947 163.942 C 94.599 163.363,95.480 162.745,95.905 162.569 C 96.331 162.393,96.746 162.038,96.827 161.781 C 96.909 161.524,97.414 161.090,97.949 160.817 C 98.484 160.544,98.986 160.156,99.063 159.954 C 99.140 159.752,99.635 159.367,100.162 159.098 C 100.690 158.829,101.236 158.356,101.377 158.048 C 101.518 157.739,101.982 157.285,102.408 157.038 C 102.834 156.792,103.606 156.214,104.124 155.753 C 104.643 155.292,105.370 154.809,105.742 154.680 C 106.113 154.550,106.556 154.184,106.726 153.867 C 106.896 153.549,107.431 153.086,107.914 152.838 C 108.398 152.590,109.055 152.084,109.376 151.714 C 109.696 151.343,110.112 151.040,110.301 151.040 C 110.490 151.040,110.893 150.660,111.197 150.194 C 111.501 149.729,112.136 149.173,112.607 148.960 C 113.078 148.747,113.830 148.252,114.278 147.861 C 114.726 147.470,115.460 147.028,115.910 146.879 C 116.360 146.731,116.904 146.341,117.119 146.013 C 117.334 145.685,117.922 145.205,118.425 144.947 C 118.928 144.690,119.603 144.196,119.926 143.850 C 120.249 143.504,120.910 143.095,121.395 142.941 C 121.880 142.787,122.529 142.398,122.837 142.077 C 123.146 141.756,123.814 141.281,124.322 141.022 C 124.830 140.762,125.603 140.216,126.040 139.808 C 126.477 139.400,127.206 138.932,127.661 138.768 C 128.194 138.575,128.540 138.260,128.635 137.882 C 128.732 137.497,129.135 137.139,129.813 136.837 C 130.380 136.584,130.979 136.158,131.143 135.890 C 131.308 135.622,132.060 135.208,132.815 134.970 C 133.702 134.690,134.353 134.307,134.652 133.886 C 134.907 133.528,135.444 133.099,135.845 132.933 C 136.245 132.767,136.740 132.377,136.943 132.067 C 137.172 131.717,137.908 131.305,138.878 130.982 C 140.006 130.606,140.518 130.296,140.712 129.870 C 140.891 129.477,141.319 129.187,141.986 129.008 C 142.538 128.859,143.176 128.514,143.404 128.241 C 143.879 127.673,145.454 126.805,146.010 126.805 C 146.217 126.805,146.669 126.487,147.016 126.098 C 147.362 125.709,148.134 125.204,148.731 124.976 C 149.804 124.566,149.816 124.549,149.816 123.401 C 149.816 122.073,150.364 121.378,151.785 120.901 C 152.251 120.745,152.852 120.429,153.121 120.198 C 153.390 119.967,154.272 119.514,155.080 119.191 C 155.887 118.869,156.806 118.302,157.121 117.931 C 157.436 117.561,157.842 117.258,158.024 117.258 C 158.206 117.258,158.860 116.821,159.477 116.287 C 160.094 115.753,161.022 115.202,161.540 115.062 C 162.057 114.923,162.887 114.485,163.385 114.090 C 163.883 113.694,164.818 113.195,165.464 112.981 C 166.109 112.767,166.885 112.328,167.187 112.005 C 167.502 111.671,168.277 111.294,168.997 111.126 C 169.798 110.940,170.491 110.583,170.898 110.149 C 171.658 109.338,172.940 108.938,174.787 108.936 C 175.957 108.935,176.222 108.841,176.809 108.220 C 177.180 107.827,178.006 107.313,178.644 107.079 C 179.282 106.844,180.135 106.353,180.539 105.987 C 180.942 105.621,181.714 105.185,182.252 105.018 C 182.791 104.851,183.507 104.462,183.843 104.153 C 184.180 103.845,184.916 103.470,185.478 103.321 C 186.041 103.172,186.948 102.677,187.495 102.221 C 188.080 101.731,188.893 101.322,189.474 101.224 C 190.057 101.125,190.868 100.716,191.460 100.221 C 192.011 99.761,192.753 99.320,193.110 99.241 C 194.428 98.949,194.663 98.841,195.426 98.174 C 195.855 97.799,196.591 97.414,197.062 97.318 C 198.333 97.061,199.510 96.623,199.510 96.408 C 199.510 96.052,201.014 95.440,202.662 95.126 C 203.827 94.904,204.493 94.628,204.938 94.183 C 205.529 93.592,206.958 93.028,207.872 93.025 C 208.094 93.024,208.736 92.640,209.297 92.171 C 209.858 91.703,210.777 91.197,211.339 91.048 C 211.902 90.898,212.583 90.579,212.852 90.337 C 213.470 89.783,214.595 89.226,215.545 89.003 C 215.949 88.908,216.682 88.555,217.174 88.217 C 217.666 87.880,218.699 87.439,219.469 87.238 C 220.240 87.036,221.162 86.656,221.518 86.393 C 221.874 86.130,223.087 85.694,224.213 85.425 C 225.659 85.080,226.498 84.729,227.066 84.230 C 227.508 83.841,228.237 83.451,228.684 83.362 C 229.959 83.110,230.934 82.676,231.337 82.184 C 231.581 81.885,232.456 81.585,233.907 81.302 C 235.361 81.018,236.428 80.651,237.050 80.222 C 237.569 79.865,238.395 79.500,238.886 79.411 C 240.005 79.209,240.590 78.922,241.383 78.184 C 241.857 77.743,242.497 77.534,244.032 77.316 C 245.627 77.091,246.244 76.882,246.937 76.331 C 247.888 75.575,248.040 75.524,250.423 75.160 C 251.296 75.026,252.287 74.713,252.626 74.463 C 253.759 73.629,254.319 73.431,256.220 73.190 C 257.460 73.033,258.281 72.793,258.613 72.491 C 259.335 71.835,259.922 71.577,261.392 71.266 C 262.104 71.116,262.993 70.766,263.368 70.489 C 263.743 70.211,264.923 69.762,265.991 69.490 C 267.058 69.218,268.152 68.791,268.421 68.541 C 269.119 67.893,269.802 67.680,272.705 67.207 C 274.119 66.976,275.716 66.582,276.255 66.330 C 277.496 65.749,279.923 65.116,280.910 65.116 C 281.335 65.116,282.034 64.846,282.504 64.499 C 283.438 63.810,284.389 63.516,286.492 63.266 C 287.463 63.151,288.141 62.909,288.619 62.507 C 289.075 62.123,289.950 61.796,291.118 61.572 C 293.228 61.169,294.202 60.826,294.811 60.276 C 295.054 60.056,295.935 59.793,296.770 59.692 C 301.138 59.164,301.884 58.999,302.583 58.411 C 303.341 57.773,303.895 57.646,307.436 57.291 C 309.257 57.109,309.918 56.932,310.630 56.439 C 311.260 56.003,312.221 55.699,313.843 55.426 C 315.115 55.211,316.427 54.863,316.757 54.653 C 317.364 54.265,318.911 53.897,323.133 53.136 C 324.412 52.905,325.955 52.484,326.561 52.200 C 327.503 51.758,331.302 51.163,333.177 51.163 C 333.422 51.163,333.949 50.887,334.349 50.551 C 334.863 50.119,335.368 49.939,336.066 49.939 C 336.610 49.939,337.320 49.838,337.643 49.715 C 337.967 49.592,339.323 49.364,340.658 49.207 C 342.215 49.025,343.523 48.714,344.308 48.340 C 345.251 47.891,346.403 47.668,349.318 47.370 C 352.865 47.006,353.308 46.881,353.558 46.168 C 353.651 45.905,357.489 45.385,361.077 45.149 C 362.491 45.056,363.735 44.929,363.843 44.867 C 364.152 44.689,363.508 44.059,363.067 44.108 C 362.848 44.132,360.685 44.223,358.262 44.310 M24.395 95.674 C 23.765 96.370,23.903 96.675,25.075 97.177 C 25.671 97.433,26.285 97.877,26.438 98.164 C 26.592 98.451,27.214 98.899,27.821 99.159 C 28.428 99.419,29.604 100.311,30.434 101.141 C 31.264 101.972,32.387 102.847,32.929 103.087 C 33.472 103.327,34.157 103.850,34.452 104.249 C 34.763 104.670,35.323 105.049,35.782 105.150 C 36.297 105.263,37.264 105.984,38.544 107.210 C 39.628 108.248,40.810 109.171,41.171 109.261 C 41.532 109.352,42.057 109.748,42.338 110.142 C 42.618 110.536,43.259 110.993,43.762 111.159 C 44.717 111.473,46.227 112.599,47.715 114.109 C 48.198 114.599,48.997 115.168,49.491 115.374 C 49.985 115.580,50.512 115.978,50.662 116.258 C 50.812 116.539,51.082 116.769,51.260 116.769 C 51.439 116.769,52.332 117.319,53.244 117.993 C 54.156 118.666,55.046 119.217,55.223 119.217 C 55.400 119.217,55.830 119.591,56.180 120.050 C 56.529 120.508,57.068 120.946,57.376 121.024 C 58.618 121.335,59.241 122.110,59.241 123.343 C 59.241 124.340,59.333 124.552,59.914 124.903 C 60.285 125.126,60.874 125.580,61.225 125.912 C 61.576 126.243,62.318 126.746,62.874 127.030 C 63.430 127.314,64.054 127.803,64.259 128.117 C 64.465 128.431,65.054 128.814,65.567 128.968 C 66.170 129.149,67.133 129.864,68.288 130.990 C 69.271 131.948,70.445 132.886,70.896 133.075 C 71.347 133.263,71.896 133.692,72.116 134.028 C 72.632 134.815,74.818 134.925,75.477 134.197 C 75.697 133.953,76.540 133.438,77.349 133.051 C 78.167 132.660,78.886 132.140,78.969 131.878 C 79.053 131.614,79.698 131.152,80.440 130.823 C 81.168 130.502,81.763 130.144,81.763 130.027 C 81.763 129.911,82.455 129.465,83.301 129.035 C 84.147 128.606,84.961 128.060,85.110 127.822 C 85.258 127.584,85.810 127.260,86.335 127.103 C 86.861 126.945,87.607 126.486,87.993 126.083 C 88.380 125.680,89.229 125.173,89.880 124.956 L 91.065 124.563 91.065 123.242 C 91.065 121.733,91.276 121.518,93.430 120.823 C 94.125 120.599,94.756 120.253,94.833 120.054 C 94.909 119.856,95.469 119.480,96.078 119.219 C 97.597 118.568,97.152 117.507,94.878 116.356 C 93.867 115.845,93.253 115.285,93.013 114.657 C 92.882 114.316,92.511 114.080,91.934 113.972 C 91.327 113.858,90.506 113.309,89.285 112.199 C 88.312 111.315,87.164 110.440,86.734 110.256 C 86.305 110.071,85.668 109.546,85.320 109.090 C 84.972 108.633,84.387 108.199,84.020 108.125 C 83.654 108.052,82.968 107.712,82.497 107.371 C 82.026 107.031,81.230 106.526,80.728 106.250 C 80.226 105.974,79.579 105.429,79.291 105.038 C 79.000 104.645,78.259 104.139,77.632 103.906 C 77.009 103.675,76.050 103.031,75.502 102.477 C 74.303 101.266,72.749 100.122,72.301 100.122 C 72.123 100.122,71.714 99.709,71.394 99.204 C 70.957 98.516,70.500 98.178,69.567 97.852 C 68.882 97.613,68.014 97.161,67.637 96.847 C 65.596 95.144,66.758 95.226,44.682 95.226 C 25.732 95.226,24.782 95.247,24.395 95.674 M131.824 147.368 C 131.554 147.483,131.028 147.644,130.655 147.724 C 130.281 147.805,129.565 148.238,129.064 148.688 C 128.562 149.137,127.766 149.702,127.295 149.942 C 126.824 150.182,126.300 150.574,126.131 150.813 C 125.963 151.052,125.441 151.374,124.972 151.529 C 124.494 151.687,123.942 152.111,123.715 152.494 C 123.493 152.870,122.969 153.375,122.549 153.618 C 122.130 153.860,121.363 154.435,120.845 154.896 C 120.327 155.357,119.590 155.843,119.209 155.976 C 118.827 156.109,118.346 156.475,118.140 156.790 C 117.933 157.105,117.419 157.439,116.996 157.531 C 116.513 157.637,116.078 157.962,115.825 158.404 C 115.603 158.792,115.113 159.237,114.736 159.394 C 114.358 159.550,113.697 160.057,113.267 160.520 C 112.837 160.982,112.060 161.580,111.541 161.849 L 110.597 162.337 111.084 162.870 C 111.352 163.163,111.649 163.659,111.744 163.972 C 111.855 164.334,112.311 164.710,113.002 165.006 C 113.598 165.261,114.152 165.641,114.232 165.850 C 114.312 166.058,114.918 166.461,115.579 166.745 C 116.239 167.030,117.040 167.571,117.358 167.949 C 117.675 168.326,118.311 168.792,118.771 168.984 C 119.230 169.176,119.793 169.619,120.022 169.969 C 120.258 170.328,120.853 170.728,121.392 170.890 C 121.988 171.068,122.956 171.760,123.979 172.739 C 124.878 173.599,126.038 174.519,126.556 174.784 C 127.075 175.048,127.722 175.578,127.995 175.961 C 128.285 176.369,128.899 176.781,129.473 176.952 C 130.116 177.145,131.029 177.804,132.118 178.861 C 133.033 179.748,134.131 180.624,134.557 180.807 C 134.984 180.990,135.561 181.460,135.839 181.852 C 136.172 182.319,136.652 182.621,137.235 182.730 C 137.764 182.830,138.485 183.248,139.013 183.762 C 139.502 184.238,140.302 184.832,140.790 185.082 C 141.278 185.332,141.741 185.701,141.818 185.903 C 141.896 186.104,142.397 186.493,142.932 186.766 C 143.468 187.039,143.969 187.462,144.047 187.707 C 144.125 187.952,144.576 188.292,145.050 188.464 C 145.524 188.635,146.394 189.193,146.985 189.704 C 147.575 190.215,148.360 190.709,148.730 190.802 C 149.099 190.895,149.612 191.239,149.871 191.568 L 150.342 192.166 172.037 192.166 C 188.912 192.166,193.668 192.101,193.439 191.873 C 193.278 191.711,193.146 191.235,193.146 190.814 C 193.146 189.884,192.011 188.823,189.784 187.671 C 189.349 187.446,188.822 186.934,188.615 186.532 C 188.407 186.130,188.070 185.802,187.866 185.802 C 187.208 185.802,185.643 184.868,185.221 184.224 C 184.815 183.604,183.644 182.726,181.918 181.748 C 181.428 181.471,180.885 180.948,180.710 180.587 C 180.528 180.212,180.107 179.861,179.730 179.771 C 178.817 179.552,177.730 178.986,176.909 178.301 C 176.403 177.879,175.915 177.723,175.097 177.723 C 174.111 177.723,173.870 177.609,173.096 176.778 C 172.612 176.257,171.865 175.653,171.437 175.434 C 171.009 175.215,170.591 174.822,170.508 174.561 C 170.425 174.299,170.059 174.017,169.695 173.934 C 169.331 173.851,168.592 173.458,168.054 173.061 C 167.515 172.664,166.723 172.175,166.294 171.974 C 165.864 171.773,165.231 171.240,164.887 170.788 C 164.519 170.306,163.882 169.852,163.342 169.688 C 162.801 169.523,161.796 168.806,160.894 167.941 C 160.053 167.134,158.927 166.250,158.391 165.976 C 157.855 165.703,157.180 165.160,156.892 164.769 C 156.603 164.378,155.889 163.876,155.306 163.653 C 154.722 163.431,153.750 162.787,153.144 162.224 C 151.018 160.245,150.528 159.853,150.185 159.853 C 149.995 159.853,149.507 159.440,149.101 158.934 C 148.614 158.329,147.946 157.867,147.144 157.582 C 146.396 157.316,145.728 156.872,145.414 156.432 C 144.912 155.727,143.384 154.580,141.974 153.851 C 141.580 153.647,141.096 153.169,140.899 152.789 C 140.648 152.303,140.131 151.941,139.159 151.569 C 137.610 150.976,136.747 150.394,135.292 148.960 C 134.531 148.211,132.602 147.018,132.348 147.140 C 132.329 147.149,132.093 147.252,131.824 147.368 " stroke="none" fill="#f6f6f6" fill-rule="evenodd"></path><path id="path1" d="M0.000 122.399 L 0.000 244.798 200.000 244.798 L 400.000 244.798 400.000 122.399 L 400.000 0.000 200.000 0.000 L 0.000 0.000 0.000 122.399 M374.486 42.703 C 374.750 42.967,374.395 43.051,372.300 43.221 C 370.206 43.391,367.259 43.186,367.554 42.891 C 368.004 42.441,374.060 42.277,374.486 42.703 M363.752 44.409 C 364.160 44.901,363.948 44.960,361.077 45.149 C 357.489 45.385,353.651 45.905,353.558 46.168 C 353.308 46.881,352.865 47.006,349.318 47.370 C 346.403 47.668,345.251 47.891,344.308 48.340 C 343.523 48.714,342.215 49.025,340.658 49.207 C 339.323 49.364,337.967 49.592,337.643 49.715 C 337.320 49.838,336.610 49.939,336.066 49.939 C 335.368 49.939,334.863 50.119,334.349 50.551 C 333.949 50.887,333.422 51.163,333.177 51.163 C 331.302 51.163,327.503 51.758,326.561 52.200 C 325.955 52.484,324.412 52.905,323.133 53.136 C 318.911 53.897,317.364 54.265,316.757 54.653 C 316.427 54.863,315.115 55.211,313.843 55.426 C 312.221 55.699,311.260 56.003,310.630 56.439 C 309.918 56.932,309.257 57.109,307.436 57.291 C 303.895 57.646,303.341 57.773,302.583 58.411 C 301.884 58.999,301.138 59.164,296.770 59.692 C 295.935 59.793,295.054 60.056,294.811 60.276 C 294.202 60.826,293.228 61.169,291.118 61.572 C 289.950 61.796,289.075 62.123,288.619 62.507 C 288.141 62.909,287.463 63.151,286.492 63.266 C 284.389 63.516,283.438 63.810,282.504 64.499 C 282.034 64.846,281.335 65.116,280.910 65.116 C 279.923 65.116,277.496 65.749,276.255 66.330 C 275.716 66.582,274.119 66.976,272.705 67.207 C 269.802 67.680,269.119 67.893,268.421 68.541 C 268.152 68.791,267.058 69.218,265.991 69.490 C 264.923 69.762,263.743 70.211,263.368 70.489 C 262.993 70.766,262.104 71.116,261.392 71.266 C 259.922 71.577,259.335 71.835,258.613 72.491 C 258.281 72.793,257.460 73.033,256.220 73.190 C 254.319 73.431,253.759 73.629,252.626 74.463 C 252.287 74.713,251.296 75.026,250.423 75.160 C 248.040 75.524,247.888 75.575,246.937 76.331 C 246.244 76.882,245.627 77.091,244.032 77.316 C 242.497 77.534,241.857 77.743,241.383 78.184 C 240.590 78.922,240.005 79.209,238.886 79.411 C 238.395 79.500,237.569 79.865,237.050 80.222 C 236.428 80.651,235.361 81.018,233.907 81.302 C 232.456 81.585,231.581 81.885,231.337 82.184 C 230.934 82.676,229.959 83.110,228.684 83.362 C 228.237 83.451,227.508 83.841,227.066 84.230 C 226.498 84.729,225.659 85.080,224.213 85.425 C 223.087 85.694,221.874 86.130,221.518 86.393 C 221.162 86.656,220.240 87.036,219.469 87.238 C 218.699 87.439,217.666 87.880,217.174 88.217 C 216.682 88.555,215.949 88.908,215.545 89.003 C 214.595 89.226,213.470 89.783,212.852 90.337 C 212.583 90.579,211.902 90.898,211.339 91.048 C 210.777 91.197,209.858 91.703,209.297 92.171 C 208.736 92.640,208.094 93.024,207.872 93.025 C 206.958 93.028,205.529 93.592,204.938 94.183 C 204.493 94.628,203.827 94.904,202.662 95.126 C 201.014 95.440,199.510 96.052,199.510 96.408 C 199.510 96.623,198.333 97.061,197.062 97.318 C 196.591 97.414,195.855 97.799,195.426 98.174 C 194.663 98.841,194.428 98.949,193.110 99.241 C 192.753 99.320,192.011 99.761,191.460 100.221 C 190.868 100.716,190.057 101.125,189.474 101.224 C 188.893 101.322,188.080 101.731,187.495 102.221 C 186.948 102.677,186.041 103.172,185.478 103.321 C 184.916 103.470,184.180 103.845,183.843 104.153 C 183.507 104.462,182.791 104.851,182.252 105.018 C 181.714 105.185,180.942 105.621,180.539 105.987 C 180.135 106.353,179.282 106.844,178.644 107.079 C 178.006 107.313,177.180 107.827,176.809 108.220 C 176.222 108.841,175.957 108.935,174.787 108.936 C 172.940 108.938,171.658 109.338,170.898 110.149 C 170.491 110.583,169.798 110.940,168.997 111.126 C 168.277 111.294,167.502 111.671,167.187 112.005 C 166.885 112.328,166.109 112.767,165.464 112.981 C 164.818 113.195,163.883 113.694,163.385 114.090 C 162.887 114.485,162.057 114.923,161.540 115.062 C 161.022 115.202,160.094 115.753,159.477 116.287 C 158.860 116.821,158.206 117.258,158.024 117.258 C 157.842 117.258,157.436 117.561,157.121 117.931 C 156.806 118.302,155.887 118.869,155.080 119.191 C 154.272 119.514,153.390 119.967,153.121 120.198 C 152.852 120.429,152.251 120.745,151.785 120.901 C 150.364 121.378,149.816 122.073,149.816 123.401 C 149.816 124.549,149.804 124.566,148.731 124.976 C 148.134 125.204,147.362 125.709,147.016 126.098 C 146.669 126.487,146.217 126.805,146.010 126.805 C 145.454 126.805,143.879 127.673,143.404 128.241 C 143.176 128.514,142.538 128.859,141.986 129.008 C 141.319 129.187,140.891 129.477,140.712 129.870 C 140.518 130.296,140.006 130.606,138.878 130.982 C 137.908 131.305,137.172 131.717,136.943 132.067 C 136.740 132.377,136.245 132.767,135.845 132.933 C 135.444 133.099,134.907 133.528,134.652 133.886 C 134.353 134.307,133.702 134.690,132.815 134.970 C 132.060 135.208,131.308 135.622,131.143 135.890 C 130.979 136.158,130.380 136.584,129.813 136.837 C 129.135 137.139,128.732 137.497,128.635 137.882 C 128.540 138.260,128.194 138.575,127.661 138.768 C 127.206 138.932,126.477 139.400,126.040 139.808 C 125.603 140.216,124.830 140.762,124.322 141.022 C 123.814 141.281,123.146 141.756,122.837 142.077 C 122.529 142.398,121.880 142.787,121.395 142.941 C 120.910 143.095,120.249 143.504,119.926 143.850 C 119.603 144.196,118.928 144.690,118.425 144.947 C 117.922 145.205,117.334 145.685,117.119 146.013 C 116.904 146.341,116.360 146.731,115.910 146.879 C 115.460 147.028,114.726 147.470,114.278 147.861 C 113.830 148.252,113.078 148.747,112.607 148.960 C 112.136 149.173,111.501 149.729,111.197 150.194 C 110.893 150.660,110.490 151.040,110.301 151.040 C 110.112 151.040,109.696 151.343,109.376 151.714 C 109.055 152.084,108.398 152.590,107.914 152.838 C 107.431 153.086,106.896 153.549,106.726 153.867 C 106.556 154.184,106.113 154.550,105.742 154.680 C 105.370 154.809,104.643 155.292,104.124 155.753 C 103.606 156.214,102.834 156.792,102.408 157.038 C 101.982 157.285,101.518 157.739,101.377 158.048 C 101.236 158.356,100.690 158.829,100.162 159.098 C 99.635 159.367,99.140 159.752,99.063 159.954 C 98.986 160.156,98.484 160.544,97.949 160.817 C 97.414 161.090,96.909 161.524,96.827 161.781 C 96.746 162.038,96.331 162.393,95.905 162.569 C 95.480 162.745,94.599 163.363,93.947 163.942 C 93.295 164.520,92.633 164.994,92.474 164.994 C 92.316 164.994,91.686 165.493,91.075 166.103 C 88.931 168.243,88.489 168.628,87.848 168.918 C 87.493 169.078,87.076 169.446,86.921 169.734 C 86.767 170.022,86.314 170.446,85.915 170.675 C 85.516 170.904,85.062 171.372,84.906 171.714 C 84.749 172.057,84.459 172.338,84.261 172.338 C 84.062 172.338,82.896 173.305,81.668 174.486 C 79.663 176.417,78.304 177.645,75.643 179.932 C 73.833 181.488,71.788 183.514,71.516 184.022 C 71.360 184.314,70.903 184.747,70.500 184.985 C 70.097 185.223,69.712 185.587,69.645 185.793 C 69.578 186.000,69.110 186.444,68.605 186.781 C 68.100 187.118,67.026 188.056,66.218 188.866 C 65.410 189.677,64.445 190.474,64.072 190.638 C 63.700 190.801,63.269 191.212,63.115 191.551 L 62.835 192.166 41.283 192.166 C 24.520 192.166,19.796 192.101,20.024 191.873 C 20.186 191.711,20.318 191.251,20.318 190.849 C 20.318 190.168,23.117 187.026,23.724 187.026 C 23.827 187.026,24.032 186.761,24.180 186.437 C 24.327 186.113,24.762 185.663,25.145 185.437 C 25.528 185.210,26.026 184.703,26.252 184.310 C 26.478 183.916,26.945 183.487,27.289 183.356 C 27.634 183.225,28.022 182.839,28.151 182.498 C 28.281 182.158,28.692 181.747,29.065 181.586 C 29.840 181.251,31.750 179.744,32.803 178.636 C 33.005 178.423,33.540 177.883,33.991 177.436 C 36.024 175.420,36.722 174.645,36.721 174.407 C 36.720 174.265,37.118 174.006,37.605 173.830 C 38.091 173.654,38.890 173.154,39.379 172.719 C 39.869 172.284,40.618 171.727,41.044 171.481 C 41.470 171.234,41.931 170.786,42.069 170.485 C 42.206 170.183,42.647 169.742,43.048 169.505 C 43.449 169.268,43.897 168.812,44.043 168.490 C 44.190 168.169,44.697 167.744,45.171 167.546 C 45.645 167.348,46.225 166.996,46.460 166.763 C 46.695 166.531,47.193 166.142,47.567 165.899 C 47.941 165.656,48.367 165.195,48.513 164.875 C 48.659 164.555,49.116 164.153,49.528 163.982 C 49.941 163.811,50.811 163.198,51.463 162.619 C 52.115 162.040,52.738 161.567,52.847 161.567 C 53.123 161.567,53.925 160.799,54.239 160.233 C 54.383 159.975,54.842 159.646,55.259 159.502 C 55.676 159.359,56.297 158.938,56.639 158.568 C 56.980 158.198,57.414 157.895,57.604 157.895 C 57.793 157.895,58.432 157.478,59.023 156.968 C 59.614 156.458,60.428 155.838,60.832 155.589 C 61.236 155.341,61.823 154.821,62.135 154.435 C 62.448 154.049,62.870 153.733,63.072 153.733 C 63.275 153.733,63.774 153.399,64.182 152.992 C 64.590 152.584,65.270 152.076,65.693 151.863 C 66.116 151.650,66.793 151.163,67.197 150.781 C 67.601 150.399,68.342 149.915,68.845 149.705 C 69.347 149.496,69.934 149.055,70.150 148.726 C 70.366 148.397,70.900 148.009,71.338 147.865 C 71.776 147.720,72.441 147.282,72.816 146.891 C 73.190 146.500,73.842 146.039,74.264 145.867 C 75.132 145.512,75.350 145.319,75.957 144.370 C 76.198 143.994,76.610 143.696,76.891 143.696 C 77.168 143.696,77.715 143.375,78.108 142.982 C 78.501 142.589,79.365 142.088,80.029 141.867 C 80.824 141.603,81.449 141.187,81.862 140.645 C 82.320 140.044,82.752 139.780,83.475 139.658 C 84.064 139.558,84.872 139.148,85.479 138.641 C 86.038 138.174,86.805 137.632,87.182 137.437 C 87.559 137.241,87.983 136.866,88.124 136.603 C 88.265 136.340,88.825 136.005,89.369 135.858 C 89.913 135.712,90.765 135.228,91.262 134.783 C 91.760 134.338,92.579 133.839,93.084 133.675 C 93.588 133.512,94.139 133.182,94.308 132.943 C 94.476 132.704,95.000 132.311,95.471 132.069 C 95.942 131.827,96.802 131.214,97.381 130.706 C 98.075 130.097,98.784 129.723,99.462 129.610 C 100.109 129.502,100.819 129.141,101.380 128.637 C 101.870 128.196,102.613 127.760,103.032 127.668 C 103.451 127.576,103.947 127.282,104.135 127.014 C 104.323 126.746,105.132 126.216,105.934 125.837 C 107.511 125.091,107.711 124.814,107.711 123.372 C 107.711 122.290,108.356 121.665,109.471 121.665 C 109.858 121.665,110.482 121.369,110.946 120.966 C 111.991 120.059,112.681 119.706,113.413 119.706 C 113.739 119.706,114.489 119.337,115.081 118.885 C 115.673 118.434,116.432 117.981,116.769 117.879 C 117.105 117.777,117.711 117.389,118.115 117.016 C 118.544 116.620,119.385 116.213,120.136 116.039 C 121.020 115.834,121.595 115.527,121.972 115.061 C 122.303 114.651,123.054 114.209,123.862 113.946 C 124.639 113.693,125.460 113.217,125.814 112.814 C 126.150 112.431,126.569 112.118,126.746 112.118 C 127.160 112.118,129.419 110.974,129.608 110.669 C 129.687 110.541,130.336 110.266,131.051 110.058 C 131.765 109.851,132.561 109.447,132.820 109.161 C 133.405 108.514,134.266 108.074,135.344 107.868 C 135.799 107.782,136.585 107.337,137.090 106.880 C 137.668 106.359,138.381 105.987,139.010 105.881 C 139.561 105.788,140.483 105.393,141.058 105.003 C 141.634 104.613,142.741 104.166,143.519 104.011 C 144.562 103.802,145.085 103.547,145.515 103.036 C 146.029 102.425,147.871 101.854,149.379 101.838 C 149.476 101.837,149.917 101.518,150.360 101.129 C 150.803 100.740,151.752 100.247,152.470 100.034 C 153.188 99.821,154.153 99.315,154.615 98.909 C 155.078 98.503,155.757 98.103,156.124 98.021 C 158.134 97.568,158.644 97.369,158.964 96.912 C 159.331 96.388,160.823 95.745,161.717 95.727 C 162.001 95.721,162.634 95.398,163.122 95.010 C 163.754 94.508,164.413 94.254,165.404 94.130 C 167.082 93.920,167.766 93.679,168.361 93.084 C 168.860 92.584,169.851 92.155,171.053 91.917 C 171.490 91.831,172.280 91.400,172.807 90.959 C 173.667 90.241,173.968 90.145,175.726 90.024 C 177.233 89.921,178.045 89.715,179.235 89.135 C 180.087 88.720,181.554 88.206,182.497 87.992 C 183.526 87.759,184.455 87.378,184.823 87.038 C 185.635 86.288,186.376 85.924,187.090 85.924 C 187.412 85.924,188.163 85.604,188.759 85.212 C 189.874 84.478,190.960 84.126,192.944 83.853 C 193.654 83.756,194.419 83.433,194.961 83.003 C 195.587 82.506,196.234 82.262,197.244 82.142 C 199.331 81.894,200.433 81.558,200.787 81.060 C 201.282 80.362,202.074 80.049,203.350 80.048 C 204.917 80.046,206.275 79.648,206.679 79.072 C 207.081 78.497,208.096 78.091,209.135 78.089 C 210.358 78.087,211.762 77.613,212.331 77.009 C 212.875 76.433,214.172 75.887,215.000 75.887 C 215.265 75.887,216.323 75.511,217.350 75.051 C 218.377 74.592,220.263 74.018,221.542 73.776 C 222.963 73.507,224.191 73.118,224.698 72.776 C 225.259 72.397,225.892 72.213,226.656 72.209 C 228.297 72.201,229.864 71.786,230.865 71.096 C 231.456 70.689,232.425 70.381,233.829 70.154 C 235.698 69.851,237.360 69.267,237.699 68.794 C 237.897 68.517,239.944 68.076,241.853 67.899 C 243.150 67.778,243.799 67.590,244.273 67.196 C 245.324 66.322,245.921 66.095,247.170 66.095 C 248.677 66.095,249.791 65.773,250.897 65.016 C 251.617 64.523,252.354 64.349,254.993 64.047 C 257.506 63.759,258.480 63.538,259.437 63.038 C 260.345 62.563,261.287 62.334,263.073 62.153 C 264.991 61.959,265.833 61.740,267.197 61.081 C 268.559 60.423,269.411 60.202,271.347 60.001 C 273.124 59.817,274.110 59.580,274.992 59.122 C 275.885 58.659,276.849 58.429,278.676 58.245 C 280.561 58.055,281.530 57.818,282.742 57.251 C 283.851 56.732,284.963 56.439,286.414 56.282 C 287.558 56.158,289.321 55.964,290.330 55.851 C 291.378 55.733,292.625 55.410,293.235 55.098 C 294.248 54.580,295.522 54.363,300.000 53.946 C 301.183 53.836,302.149 53.563,303.119 53.063 C 304.381 52.413,304.868 52.318,307.863 52.131 C 310.608 51.961,311.424 51.818,312.455 51.330 C 314.370 50.423,314.477 50.399,317.748 50.148 C 323.080 49.739,324.242 49.581,324.858 49.183 C 325.784 48.586,326.451 48.449,329.621 48.210 C 334.731 47.825,336.244 47.618,336.857 47.220 C 337.584 46.747,339.036 46.541,343.819 46.231 C 347.670 45.982,352.833 45.600,352.938 45.558 C 352.971 45.544,352.999 45.379,352.999 45.191 C 352.999 44.598,353.746 44.473,358.262 44.310 C 360.685 44.223,362.848 44.132,363.067 44.108 C 363.286 44.083,363.594 44.219,363.752 44.409 M65.758 95.751 C 66.415 96.039,67.261 96.532,67.637 96.847 C 68.014 97.161,68.882 97.613,69.567 97.852 C 70.500 98.178,70.957 98.516,71.394 99.204 C 71.714 99.709,72.123 100.122,72.301 100.122 C 72.749 100.122,74.303 101.266,75.502 102.477 C 76.050 103.031,77.009 103.675,77.632 103.906 C 78.259 104.139,79.000 104.645,79.291 105.038 C 79.579 105.429,80.226 105.974,80.728 106.250 C 81.230 106.526,82.026 107.031,82.497 107.371 C 82.968 107.712,83.654 108.052,84.020 108.125 C 84.387 108.199,84.972 108.633,85.320 109.090 C 85.668 109.546,86.305 110.071,86.734 110.256 C 87.164 110.440,88.312 111.315,89.285 112.199 C 90.506 113.309,91.327 113.858,91.934 113.972 C 92.511 114.080,92.882 114.316,93.013 114.657 C 93.253 115.285,93.867 115.845,94.878 116.356 C 97.152 117.507,97.597 118.568,96.078 119.219 C 95.469 119.480,94.909 119.856,94.833 120.054 C 94.756 120.253,94.125 120.599,93.430 120.823 C 91.276 121.518,91.065 121.733,91.065 123.242 L 91.065 124.563 89.880 124.956 C 89.229 125.173,88.380 125.680,87.993 126.083 C 87.607 126.486,86.861 126.945,86.335 127.103 C 85.810 127.260,85.258 127.584,85.110 127.822 C 84.961 128.060,84.147 128.606,83.301 129.035 C 82.455 129.465,81.763 129.911,81.763 130.027 C 81.763 130.144,81.168 130.502,80.440 130.823 C 79.698 131.152,79.053 131.614,78.969 131.878 C 78.886 132.140,78.167 132.660,77.349 133.051 C 76.540 133.438,75.697 133.953,75.477 134.197 C 74.818 134.925,72.632 134.815,72.116 134.028 C 71.896 133.692,71.347 133.263,70.896 133.075 C 70.445 132.886,69.271 131.948,68.288 130.990 C 67.133 129.864,66.170 129.149,65.567 128.968 C 65.054 128.814,64.465 128.431,64.259 128.117 C 64.054 127.803,63.430 127.314,62.874 127.030 C 62.318 126.746,61.576 126.243,61.225 125.912 C 60.874 125.580,60.285 125.126,59.914 124.903 C 59.333 124.552,59.241 124.340,59.241 123.343 C 59.241 122.110,58.618 121.335,57.376 121.024 C 57.068 120.946,56.529 120.508,56.180 120.050 C 55.830 119.591,55.400 119.217,55.223 119.217 C 55.046 119.217,54.156 118.666,53.244 117.993 C 52.332 117.319,51.439 116.769,51.260 116.769 C 51.082 116.769,50.812 116.539,50.662 116.258 C 50.512 115.978,49.985 115.580,49.491 115.374 C 48.997 115.168,48.198 114.599,47.715 114.109 C 46.227 112.599,44.717 111.473,43.762 111.159 C 43.259 110.993,42.618 110.536,42.338 110.142 C 42.057 109.748,41.532 109.352,41.171 109.261 C 40.810 109.171,39.628 108.248,38.544 107.210 C 37.264 105.984,36.297 105.263,35.782 105.150 C 35.323 105.049,34.763 104.670,34.452 104.249 C 34.157 103.850,33.472 103.327,32.929 103.087 C 32.387 102.847,31.264 101.972,30.434 101.141 C 29.604 100.311,28.428 99.419,27.821 99.159 C 27.214 98.899,26.592 98.451,26.438 98.164 C 26.285 97.877,25.671 97.433,25.075 97.177 C 23.903 96.675,23.765 96.370,24.395 95.674 C 25.082 94.915,64.020 94.987,65.758 95.751 M133.340 147.553 C 133.867 147.788,134.745 148.422,135.292 148.960 C 136.747 150.394,137.610 150.976,139.159 151.569 C 140.131 151.941,140.648 152.303,140.899 152.789 C 141.096 153.169,141.580 153.647,141.974 153.851 C 143.384 154.580,144.912 155.727,145.414 156.432 C 145.728 156.872,146.396 157.316,147.144 157.582 C 147.946 157.867,148.614 158.329,149.101 158.934 C 149.507 159.440,149.995 159.853,150.185 159.853 C 150.528 159.853,151.018 160.245,153.144 162.224 C 153.750 162.787,154.722 163.431,155.306 163.653 C 155.889 163.876,156.603 164.378,156.892 164.769 C 157.180 165.160,157.855 165.703,158.391 165.976 C 158.927 166.250,160.053 167.134,160.894 167.941 C 161.796 168.806,162.801 169.523,163.342 169.688 C 163.882 169.852,164.519 170.306,164.887 170.788 C 165.231 171.240,165.864 171.773,166.294 171.974 C 166.723 172.175,167.515 172.664,168.054 173.061 C 168.592 173.458,169.331 173.851,169.695 173.934 C 170.059 174.017,170.425 174.299,170.508 174.561 C 170.591 174.822,171.009 175.215,171.437 175.434 C 171.865 175.653,172.612 176.257,173.096 176.778 C 173.870 177.609,174.111 177.723,175.097 177.723 C 175.915 177.723,176.403 177.879,176.909 178.301 C 177.730 178.986,178.817 179.552,179.730 179.771 C 180.107 179.861,180.528 180.212,180.710 180.587 C 180.885 180.948,181.428 181.471,181.918 181.748 C 183.644 182.726,184.815 183.604,185.221 184.224 C 185.643 184.868,187.208 185.802,187.866 185.802 C 188.070 185.802,188.407 186.130,188.615 186.532 C 188.822 186.934,189.349 187.446,189.784 187.671 C 192.011 188.823,193.146 189.884,193.146 190.814 C 193.146 191.235,193.278 191.711,193.439 191.873 C 193.668 192.101,188.912 192.166,172.037 192.166 L 150.342 192.166 149.871 191.568 C 149.612 191.239,149.099 190.895,148.730 190.802 C 148.360 190.709,147.575 190.215,146.985 189.704 C 146.394 189.193,145.524 188.635,145.050 188.464 C 144.576 188.292,144.125 187.952,144.047 187.707 C 143.969 187.462,143.468 187.039,142.932 186.766 C 142.397 186.493,141.896 186.104,141.818 185.903 C 141.741 185.701,141.278 185.332,140.790 185.082 C 140.302 184.832,139.502 184.238,139.013 183.762 C 138.485 183.248,137.764 182.830,137.235 182.730 C 136.652 182.621,136.172 182.319,135.839 181.852 C 135.561 181.460,134.984 180.990,134.557 180.807 C 134.131 180.624,133.033 179.748,132.118 178.861 C 131.029 177.804,130.116 177.145,129.473 176.952 C 128.899 176.781,128.285 176.369,127.995 175.961 C 127.722 175.578,127.075 175.048,126.556 174.784 C 126.038 174.519,124.878 173.599,123.979 172.739 C 122.956 171.760,121.988 171.068,121.392 170.890 C 120.853 170.728,120.258 170.328,120.022 169.969 C 119.793 169.619,119.230 169.176,118.771 168.984 C 118.311 168.792,117.675 168.326,117.358 167.949 C 117.040 167.571,116.239 167.030,115.579 166.745 C 114.918 166.461,114.312 166.058,114.232 165.850 C 114.152 165.641,113.598 165.261,113.002 165.006 C 112.311 164.710,111.855 164.334,111.744 163.972 C 111.649 163.659,111.352 163.163,111.084 162.870 L 110.597 162.337 111.541 161.849 C 112.060 161.580,112.837 160.982,113.267 160.520 C 113.697 160.057,114.358 159.550,114.736 159.394 C 115.113 159.237,115.603 158.792,115.825 158.404 C 116.078 157.962,116.513 157.637,116.996 157.531 C 117.419 157.439,117.933 157.105,118.140 156.790 C 118.346 156.475,118.827 156.109,119.209 155.976 C 119.590 155.843,120.327 155.357,120.845 154.896 C 121.363 154.435,122.130 153.860,122.549 153.618 C 122.969 153.375,123.493 152.870,123.715 152.494 C 123.942 152.111,124.494 151.687,124.972 151.529 C 125.441 151.374,125.963 151.052,126.131 150.813 C 126.300 150.574,126.824 150.182,127.295 149.942 C 127.766 149.702,128.562 149.137,129.064 148.688 C 129.565 148.238,130.281 147.805,130.655 147.724 C 131.193 147.609,131.832 147.388,132.348 147.140 C 132.367 147.131,132.813 147.317,133.340 147.553 " stroke="none" fill="#000000" fill-rule="evenodd"></path></g></svg>