<svg id="svg" version="1.1" xmlns="http://www.w3.org/2000/svg" xmlns:xlink="http://www.w3.org/1999/xlink" width="400" height="94.97716894977168" viewBox="0, 0, 400,94.97716894977168"><g id="svgg"><path id="path0" d="M386.795 14.287 C 387.094 14.325,387.544 14.324,387.795 14.286 C 388.045 14.248,387.800 14.217,387.250 14.218 C 386.700 14.219,386.495 14.250,386.795 14.287 M380.500 14.850 C 380.087 14.936,379.150 15.069,378.417 15.147 C 377.683 15.225,376.258 15.409,375.250 15.557 C 374.242 15.704,372.817 15.904,372.083 16.001 C 369.572 16.332,368.749 16.463,367.500 16.731 C 366.813 16.879,366.025 17.003,365.750 17.007 C 365.475 17.011,364.950 17.123,364.583 17.256 C 364.217 17.388,363.242 17.576,362.417 17.672 C 361.592 17.769,360.767 17.912,360.583 17.991 C 360.400 18.069,359.688 18.223,359.000 18.333 C 358.313 18.443,357.600 18.596,357.417 18.674 C 357.233 18.751,356.690 18.863,356.209 18.923 C 355.727 18.983,355.297 19.091,355.252 19.163 C 355.207 19.236,354.814 19.346,354.377 19.408 C 353.941 19.471,353.208 19.623,352.750 19.748 C 351.330 20.133,349.326 20.634,347.500 21.059 C 346.537 21.284,345.525 21.545,345.250 21.640 C 344.975 21.735,344.337 21.925,343.833 22.064 C 341.932 22.585,339.897 23.210,339.369 23.434 C 339.068 23.562,338.678 23.667,338.503 23.667 C 338.182 23.667,335.704 24.390,335.083 24.664 C 333.840 25.215,333.093 25.500,332.895 25.500 C 332.769 25.500,332.386 25.650,332.044 25.833 C 331.701 26.017,331.270 26.169,331.086 26.173 C 330.901 26.176,330.563 26.286,330.333 26.417 C 330.104 26.548,329.767 26.660,329.583 26.666 C 329.400 26.673,328.950 26.823,328.583 27.000 C 328.217 27.177,327.779 27.325,327.611 27.328 C 327.443 27.331,326.782 27.591,326.144 27.905 C 325.505 28.220,324.743 28.529,324.450 28.591 C 324.157 28.654,323.729 28.806,323.500 28.930 C 322.568 29.432,320.542 30.315,319.917 30.491 C 319.550 30.594,318.987 30.824,318.667 31.001 C 318.346 31.179,317.939 31.376,317.762 31.439 C 317.585 31.503,316.881 31.842,316.197 32.194 C 315.513 32.546,314.823 32.833,314.664 32.833 C 314.505 32.833,314.287 32.938,314.180 33.067 C 314.074 33.195,313.783 33.352,313.535 33.414 C 313.050 33.535,309.516 35.266,308.417 35.920 C 308.050 36.138,307.600 36.395,307.417 36.491 C 307.233 36.587,306.971 36.729,306.833 36.806 C 306.366 37.068,305.587 37.479,304.083 38.255 C 303.258 38.681,302.283 39.249,301.917 39.517 C 301.550 39.785,300.837 40.202,300.333 40.445 C 299.829 40.687,299.154 41.089,298.833 41.337 C 298.512 41.585,298.025 41.913,297.750 42.066 C 297.475 42.218,297.056 42.472,296.819 42.630 C 296.582 42.788,295.964 43.168,295.444 43.474 C 294.925 43.781,294.500 44.100,294.500 44.183 C 294.500 44.265,294.381 44.333,294.235 44.333 C 294.089 44.333,293.598 44.615,293.145 44.958 C 290.561 46.918,289.899 47.333,289.358 47.333 C 288.975 47.333,288.057 47.968,285.623 49.917 C 284.706 50.650,283.782 51.367,283.568 51.511 C 283.354 51.654,283.008 51.955,282.798 52.180 C 282.588 52.405,282.154 52.772,281.833 52.996 C 280.613 53.849,275.333 58.943,275.333 59.267 C 275.333 59.463,276.415 59.500,282.126 59.500 L 288.919 59.500 289.998 58.559 C 290.591 58.042,291.412 57.273,291.823 56.851 C 292.233 56.429,292.872 55.831,293.243 55.523 C 293.613 55.215,294.404 54.503,295.000 53.940 C 296.003 52.993,298.388 50.980,299.669 50.000 C 299.968 49.771,300.409 49.416,300.648 49.211 C 301.872 48.164,302.831 47.500,303.121 47.500 C 303.299 47.500,303.873 47.200,304.396 46.833 C 304.920 46.467,305.414 46.167,305.494 46.167 C 305.573 46.167,305.664 46.109,305.694 46.038 C 305.744 45.924,307.261 44.847,307.980 44.417 C 308.133 44.325,308.719 43.894,309.283 43.458 C 309.847 43.023,310.378 42.667,310.463 42.667 C 310.548 42.667,310.809 42.498,311.043 42.292 C 311.741 41.676,312.225 41.333,312.396 41.333 C 312.484 41.333,312.675 41.230,312.820 41.104 C 312.965 40.977,313.421 40.694,313.833 40.473 C 314.246 40.253,314.913 39.850,315.317 39.578 C 316.251 38.947,316.364 38.879,316.667 38.755 C 316.992 38.623,317.412 38.366,318.333 37.739 C 318.746 37.458,319.458 37.033,319.917 36.795 C 320.375 36.557,321.087 36.169,321.500 35.933 C 321.912 35.697,322.362 35.460,322.500 35.405 C 323.090 35.171,323.482 34.972,324.583 34.346 C 325.749 33.684,326.216 33.425,327.000 33.005 C 327.229 32.882,327.529 32.718,327.667 32.640 C 327.804 32.562,328.029 32.451,328.167 32.394 C 328.304 32.336,329.025 31.999,329.769 31.645 C 330.513 31.290,331.213 31.000,331.326 31.000 C 331.439 31.000,331.731 30.893,331.974 30.763 C 333.134 30.140,336.632 28.500,336.799 28.500 C 337.000 28.500,337.538 28.277,339.417 27.414 C 340.058 27.119,340.790 26.829,341.042 26.769 C 341.295 26.709,342.051 26.399,342.723 26.080 C 343.395 25.761,344.089 25.497,344.264 25.494 C 344.440 25.491,344.771 25.381,345.000 25.250 C 345.229 25.119,345.568 25.009,345.752 25.006 C 345.937 25.003,346.368 24.850,346.710 24.667 C 347.052 24.483,347.493 24.333,347.689 24.333 C 347.886 24.333,348.355 24.189,348.732 24.014 C 350.041 23.402,352.504 22.500,352.864 22.500 C 353.204 22.500,354.683 22.070,356.000 21.588 C 357.430 21.065,359.357 20.500,359.712 20.500 C 359.925 20.500,360.171 20.433,360.258 20.351 C 360.345 20.269,360.754 20.123,361.167 20.026 C 362.305 19.760,363.305 19.502,364.500 19.165 C 365.096 18.997,366.296 18.696,367.167 18.497 C 368.037 18.297,369.012 18.053,369.333 17.953 C 369.654 17.853,370.254 17.717,370.667 17.650 C 371.079 17.583,371.717 17.440,372.083 17.333 C 372.450 17.226,373.162 17.078,373.667 17.004 C 374.171 16.930,374.783 16.790,375.026 16.694 C 375.270 16.599,375.945 16.468,376.526 16.405 C 377.108 16.341,377.722 16.218,377.892 16.130 C 378.062 16.042,378.737 15.907,379.392 15.831 C 380.047 15.755,381.108 15.579,381.750 15.440 C 382.392 15.301,383.423 15.140,384.042 15.081 C 384.660 15.022,385.167 14.923,385.167 14.862 C 385.167 14.686,381.335 14.677,380.500 14.850 M137.151 30.458 C 136.262 31.392,135.167 32.755,135.167 32.927 C 135.167 32.994,134.908 33.319,134.591 33.649 C 132.630 35.697,132.532 35.977,133.375 37.116 C 133.673 37.519,134.217 38.253,134.583 38.748 C 134.950 39.243,135.850 40.488,136.583 41.516 C 137.317 42.543,138.197 43.766,138.540 44.233 C 138.883 44.701,139.414 45.459,139.721 45.918 C 140.027 46.377,140.510 46.972,140.795 47.241 C 141.080 47.510,141.276 47.791,141.230 47.865 C 141.184 47.939,137.008 48.000,131.948 48.000 L 122.750 48.000 120.529 50.285 C 118.516 52.355,118.336 52.589,118.602 52.785 C 118.837 52.956,121.582 53.000,132.161 53.000 C 144.647 53.000,145.440 53.017,145.671 53.295 C 145.806 53.457,146.142 53.926,146.417 54.337 C 146.692 54.747,147.648 56.077,148.541 57.292 L 150.166 59.500 155.222 59.500 C 158.003 59.500,160.324 59.454,160.380 59.398 C 160.520 59.258,160.266 58.887,157.635 55.374 C 156.381 53.698,155.307 52.179,155.249 51.997 C 155.191 51.815,155.082 51.667,155.005 51.667 C 154.928 51.667,154.604 51.273,154.283 50.792 C 153.262 49.259,151.668 47.333,151.419 47.333 C 151.287 47.333,151.090 47.165,150.982 46.958 C 150.874 46.752,150.565 46.321,150.297 46.000 C 149.817 45.426,148.157 43.213,147.667 42.494 C 147.529 42.292,147.004 41.580,146.500 40.912 C 145.996 40.245,145.171 39.128,144.667 38.432 C 142.891 35.981,139.632 31.580,139.250 31.118 C 139.158 31.007,138.873 30.635,138.617 30.292 C 138.032 29.509,138.056 29.507,137.151 30.458 M22.250 30.673 C 20.926 30.885,20.121 31.102,19.583 31.394 C 19.308 31.543,18.970 31.665,18.830 31.666 C 18.359 31.668,16.901 33.128,16.364 34.134 L 15.833 35.130 15.833 39.173 C 15.833 43.161,15.839 43.229,16.255 44.079 C 16.905 45.407,18.768 47.000,19.673 47.000 C 19.816 47.000,20.027 47.094,20.142 47.208 C 20.304 47.371,23.569 47.435,34.883 47.500 L 49.417 47.583 49.462 50.478 C 49.494 52.472,49.449 53.445,49.317 53.603 C 49.157 53.796,46.417 53.833,32.333 53.833 C 14.147 53.833,14.984 53.791,15.252 54.700 C 15.942 57.050,18.087 58.675,21.167 59.183 C 23.267 59.529,50.952 59.527,52.417 59.180 C 56.440 58.227,57.659 56.298,57.664 50.873 C 57.668 46.928,57.428 46.136,55.697 44.374 C 53.493 42.130,53.421 42.120,37.417 42.010 L 23.917 41.917 23.917 38.917 L 23.917 35.917 40.167 35.831 C 49.104 35.784,56.435 35.728,56.458 35.706 C 57.057 35.137,54.630 32.246,52.965 31.544 C 50.656 30.572,51.277 30.609,36.583 30.573 C 29.158 30.555,22.708 30.600,22.250 30.673 M174.417 30.855 C 171.562 31.461,169.958 32.681,169.078 34.917 C 168.580 36.181,168.570 53.395,169.066 54.833 C 169.902 57.257,171.693 58.563,174.962 59.134 C 177.189 59.522,202.833 59.562,205.667 59.182 C 208.842 58.755,210.805 57.250,211.397 54.788 C 211.689 53.575,213.116 53.673,194.536 53.626 L 177.917 53.583 177.917 44.750 L 177.917 35.917 194.583 35.833 L 211.250 35.750 211.302 35.214 C 211.363 34.585,210.658 33.261,210.107 32.971 C 209.911 32.867,209.490 32.531,209.172 32.225 C 208.853 31.918,208.493 31.667,208.371 31.667 C 208.248 31.667,207.819 31.517,207.417 31.334 C 205.430 30.428,178.282 30.034,174.417 30.855 M70.082 31.042 C 70.032 31.248,70.012 37.717,70.037 45.417 L 70.083 59.417 74.500 59.417 L 78.917 59.417 79.000 53.966 C 79.050 50.670,79.149 48.451,79.250 48.351 C 79.356 48.246,84.149 48.167,92.500 48.135 C 104.537 48.087,105.635 48.060,106.229 47.792 C 106.598 47.625,107.276 47.500,107.815 47.500 C 109.489 47.500,110.824 46.288,111.671 44.000 C 112.527 41.691,112.141 35.818,111.048 34.496 C 109.732 32.905,108.535 32.020,106.976 31.485 C 104.694 30.702,104.118 30.679,86.628 30.673 L 70.173 30.667 70.082 31.042 M224.871 33.208 L 224.917 35.750 244.917 35.750 L 264.917 35.750 264.917 33.250 L 264.917 30.750 244.871 30.708 L 224.825 30.665 224.871 33.208 M276.599 31.083 C 276.749 31.313,276.934 31.500,277.011 31.500 C 277.087 31.500,277.352 31.688,277.599 31.917 C 277.846 32.146,278.095 32.333,278.151 32.333 C 278.207 32.333,278.444 32.510,278.677 32.726 C 278.910 32.942,279.565 33.436,280.132 33.823 C 280.700 34.211,281.208 34.599,281.263 34.687 C 281.317 34.775,281.636 35.029,281.972 35.251 C 282.871 35.845,284.018 36.664,284.265 36.888 C 284.383 36.995,284.728 37.253,285.032 37.460 C 285.335 37.667,286.296 38.358,287.167 38.996 C 288.037 39.633,288.998 40.327,289.302 40.536 C 289.818 40.892,290.767 41.610,291.620 42.289 C 292.208 42.757,293.560 42.346,294.050 41.550 C 294.123 41.431,294.281 41.333,294.400 41.333 C 294.519 41.333,294.909 41.123,295.267 40.866 C 295.884 40.422,297.322 39.543,298.319 39.000 C 299.561 38.323,299.757 38.079,299.445 37.603 C 299.288 37.363,299.079 37.167,298.981 37.167 C 298.802 37.167,298.344 36.845,297.200 35.917 C 296.861 35.642,296.433 35.322,296.250 35.207 C 294.708 34.238,293.840 33.625,293.005 32.917 C 292.682 32.642,292.297 32.342,292.150 32.250 C 292.003 32.158,291.553 31.860,291.150 31.588 C 289.722 30.622,290.115 30.667,282.977 30.667 L 276.326 30.667 276.599 31.083 M101.629 35.822 C 103.989 36.095,104.448 36.807,104.267 39.917 C 104.154 41.874,104.018 42.223,103.103 42.906 C 102.559 43.312,80.077 43.565,79.345 43.173 C 78.866 42.917,78.805 36.492,79.276 35.971 C 79.579 35.636,98.909 35.507,101.629 35.822 M224.186 40.727 C 224.049 40.891,224.009 43.507,224.040 50.185 L 224.083 59.417 243.879 59.459 L 263.675 59.501 263.629 56.792 L 263.583 54.083 248.454 54.041 L 233.324 53.998 233.159 53.563 C 233.062 53.309,233.012 51.594,233.039 49.439 L 233.083 45.750 241.917 45.663 C 246.775 45.615,250.769 45.559,250.792 45.538 C 250.882 45.455,250.827 41.011,250.732 40.764 C 250.590 40.393,224.493 40.357,224.186 40.727 M309.750 46.051 C 309.567 46.161,309.060 46.494,308.625 46.792 C 308.189 47.090,307.659 47.333,307.446 47.333 C 307.112 47.333,305.766 48.184,305.000 48.880 C 304.862 49.005,304.433 49.327,304.045 49.595 C 303.658 49.864,303.339 50.149,303.337 50.230 C 303.330 50.535,305.094 51.967,306.644 52.917 C 306.794 53.008,307.190 53.308,307.524 53.583 C 307.858 53.858,308.410 54.271,308.750 54.500 C 309.090 54.729,309.642 55.148,309.976 55.431 C 310.310 55.713,310.715 55.992,310.875 56.050 C 311.035 56.109,311.167 56.229,311.167 56.317 C 311.167 56.405,311.315 56.524,311.495 56.582 C 311.676 56.639,312.333 57.078,312.954 57.556 C 313.575 58.034,314.443 58.667,314.883 58.963 L 315.683 59.500 322.425 59.500 C 326.133 59.500,329.167 59.451,329.167 59.390 C 329.167 59.201,327.601 57.833,327.384 57.833 C 327.271 57.833,327.098 57.683,327.000 57.500 C 326.902 57.317,326.726 57.167,326.610 57.167 C 326.494 57.167,326.144 56.904,325.833 56.583 C 325.522 56.262,325.201 56.000,325.119 56.000 C 325.037 56.000,324.770 55.847,324.526 55.660 C 322.817 54.348,321.500 53.390,321.002 53.096 C 320.682 52.908,320.307 52.655,320.168 52.536 C 319.761 52.184,318.568 51.283,317.914 50.833 C 317.317 50.423,316.027 49.419,315.458 48.922 C 315.298 48.781,315.114 48.667,315.050 48.667 C 314.985 48.667,314.696 48.438,314.408 48.158 C 314.095 47.855,313.533 47.557,313.016 47.421 C 312.538 47.295,311.872 46.980,311.534 46.721 C 311.012 46.321,310.182 45.810,310.106 45.843 C 310.094 45.849,309.933 45.942,309.750 46.051 " stroke="none" fill="#f8f9fa" fill-rule="evenodd"></path></g></svg>